<?xml version="1.0" standalone="no"?>
<!DOCTYPE svg PUBLIC "-//W3C//DTD SVG 20010904//EN"
 "http://www.w3.org/TR/2001/REC-SVG-20010904/DTD/svg10.dtd">
<svg version="1.0" xmlns="http://www.w3.org/2000/svg"
 width="700.000000pt" height="700.000000pt" viewBox="0 0 700.000000 700.000000"
 preserveAspectRatio="xMidYMid meet">
<metadata>
Created by potrace 1.14, written by Peter Selinger 2001-2017
</metadata>
<g transform="translate(0.000000,700.000000) scale(0.100000,-0.100000)"
fill="#000000" stroke="none">
<path d="M2242 6400 c-67 -24 -98 -46 -138 -98 -48 -63 -63 -126 -63 -262 0
-63 0 -135 0 -160 l-1 -46 -332 -1 c-395 -1 -465 -11 -628 -87 -185 -87 -353
-266 -430 -459 -69 -173 -64 -10 -64 -2082 l0 -1870 23 -85 c93 -335 316 -553
661 -646 61 -17 196 -18 2230 -18 2041 0 2169 1 2230 17 129 36 201 67 297
130 148 96 278 264 337 433 55 156 53 73 51 2064 -1 1015 -5 1859 -9 1875 -83
374 -339 636 -696 712 -60 12 -154 16 -432 16 l-318 1 0 46 c-2 260 -6 316
-27 362 -50 109 -148 172 -268 171 -120 -1 -213 -62 -263 -172 -24 -53 -26
-66 -27 -231 l-1 -175 -874 0 -874 0 -1 175 c-1 165 -3 178 -26 230 -65 140
-218 209 -357 160z m-202 -1162 c0 -7 2 -89 3 -183 2 -156 5 -174 26 -219 109
-222 418 -222 527 0 26 53 27 63 29 227 2 95 3 175 4 180 1 4 394 6 873 5
l872 -3 1 -175 c2 -197 10 -232 80 -308 149 -166 427 -101 489 114 10 33 15
100 15 199 0 83 0 156 0 163 1 10 67 12 329 10 314 -3 329 -4 373 -25 84 -40
148 -122 165 -208 4 -22 7 -841 7 -1820 0 -1444 -2 -1788 -13 -1820 -34 -104
-117 -181 -220 -202 -14 -3 -961 -6 -2105 -6 -1686 0 -2088 2 -2120 13 -89 29
-166 106 -195 195 -11 32 -13 384 -13 1840 l0 1800 21 48 c38 86 95 141 176
169 44 15 91 17 364 18 243 0 312 -3 312 -12z"/>
<path d="M1971 4074 c-90 -27 -158 -84 -194 -163 -32 -68 -30 -180 2 -244 31
-60 81 -110 140 -139 l46 -23 1535 0 1535 0 47 23 c185 91 224 333 76 473 -94
89 40 83 -1657 83 -1044 1 -1504 -2 -1530 -10z"/>
</g>
</svg>
